<?xml version="1.0" encoding="utf-8"?>
<!-- Generator: Adobe Illustrator 27.3.1, SVG Export Plug-In . SVG Version: 6.00 Build 0)  -->
<svg version="1.1" id="Layer_1" xmlns="http://www.w3.org/2000/svg" xmlns:xlink="http://www.w3.org/1999/xlink" x="0px" y="0px"
	 viewBox="0 0 462 110" style="enable-background:new 0 0 462 110;" xml:space="preserve">
<style type="text/css">
	.st0{fill:#64F4AB;}
	.st1{fill:#FFFFFF;}
	.st2{fill:none;stroke:#64F4AB;stroke-width:2;stroke-miterlimit:10;}
</style>
<path id="Background" class="st0" d="M154,17.5c-1.8-6.7-7.1-12-13.8-13.8c-9-3.5-96.6-5.2-122,0.1c-6.7,1.8-12,7.1-13.8,13.8
	C0.3,35.5,0,74.2,4.5,92.5c1.8,6.7,7.1,12,13.8,13.8c17.9,4.1,103,4.7,122,0c6.7-1.8,12-7.1,13.8-13.8C158.5,73,158.8,36.7,154,17.5
	z"/>
<path id="Play_Button" class="st1" d="M104,49.1L67.1,28C62.6,25.4,57,28.6,57,33.8v42.3c0,5.2,5.6,8.5,10.1,5.9L104,60.9
	C108.5,58.3,108.5,51.7,104,49.1z"/>
<g>
	<path class="st1" d="M188.3,37c0,0.3-0.1,0.6-0.2,0.8c-0.1,0.3-0.3,0.5-0.5,0.7c-0.2,0.2-0.4,0.3-0.7,0.4s-0.5,0.2-0.8,0.2
		c-0.3,0-0.5,0-0.8-0.1c-0.3-0.1-0.5-0.3-0.7-0.5l-15.3-16v16.3h-4.2V17.4c0-0.4,0.1-0.8,0.4-1.2c0.2-0.3,0.5-0.6,0.9-0.8
		c0.4-0.2,0.8-0.2,1.2-0.1c0.4,0.1,0.8,0.3,1.1,0.6l15.3,16V15.6h4.2V37z"/>
	<path class="st1" d="M211.6,32.9c0,0.7-0.1,1.4-0.3,1.9s-0.4,1.1-0.7,1.5c-0.3,0.4-0.7,0.8-1,1.1c-0.4,0.3-0.8,0.6-1.2,0.7
		c-0.4,0.2-0.9,0.3-1.3,0.4c-0.4,0.1-0.9,0.1-1.3,0.1h-7.6c-0.6,0-1.2-0.1-1.9-0.3s-1.3-0.5-1.9-1c-0.6-0.5-1.1-1.1-1.5-1.8
		c-0.4-0.7-0.6-1.7-0.6-2.7v-5.7c0-1.1,0.2-2,0.6-2.7c0.4-0.7,0.9-1.4,1.5-1.8c0.6-0.5,1.2-0.8,1.9-1s1.3-0.3,1.9-0.3h7.6
		c1.1,0,2,0.2,2.7,0.6c0.8,0.4,1.4,0.9,1.8,1.5s0.8,1.2,1,1.9c0.2,0.7,0.3,1.3,0.3,1.9V32.9z M207.4,27.2c0-0.6-0.1-1-0.4-1.3
		c-0.3-0.3-0.7-0.4-1.3-0.4h-7.5c-0.6,0-1,0.1-1.3,0.4c-0.3,0.3-0.4,0.7-0.4,1.2v5.7c0,0.5,0.1,1,0.4,1.3c0.3,0.3,0.7,0.4,1.3,0.4
		h7.5c0.6,0,1-0.1,1.3-0.4s0.4-0.7,0.4-1.3V27.2z"/>
	<path class="st1" d="M238.3,38.7h-4.2v-5.7h-14.7v5.7h-4.2V27.2c0-1.7,0.3-3.2,0.9-4.7s1.4-2.6,2.4-3.7s2.2-1.8,3.7-2.4
		c1.4-0.6,2.9-0.9,4.6-0.9h9.4c0.3,0,0.6,0.1,0.8,0.2s0.5,0.3,0.7,0.5s0.3,0.4,0.5,0.7s0.2,0.5,0.2,0.8V38.7z M219.3,28.9h14.7v-9.1
		h-7.4c-0.1,0-0.4,0-0.8,0.1c-0.4,0-0.9,0.1-1.4,0.3c-0.5,0.2-1.1,0.4-1.7,0.7c-0.6,0.3-1.2,0.7-1.7,1.3s-0.9,1.2-1.2,2.1
		c-0.3,0.8-0.5,1.8-0.5,3V28.9z"/>
	<path class="st1" d="M261.7,32.9c0,0.7-0.1,1.4-0.3,1.9c-0.2,0.6-0.4,1.1-0.7,1.5c-0.3,0.4-0.7,0.8-1,1.1c-0.4,0.3-0.8,0.6-1.2,0.7
		c-0.4,0.2-0.9,0.3-1.3,0.4c-0.4,0.1-0.9,0.1-1.3,0.1h-7.6c-0.7,0-1.4-0.1-1.9-0.3s-1.1-0.4-1.5-0.7c-0.4-0.3-0.8-0.7-1.1-1.1
		c-0.3-0.4-0.6-0.8-0.8-1.2c-0.2-0.4-0.3-0.9-0.4-1.3c-0.1-0.4-0.1-0.9-0.1-1.2v-5.7c0-1.1,0.2-2,0.6-2.7c0.4-0.7,0.9-1.4,1.5-1.8
		c0.6-0.5,1.2-0.8,1.9-1s1.3-0.3,1.9-0.3h7.6v4.2h-7.5c-0.6,0-1,0.1-1.3,0.4c-0.3,0.3-0.4,0.7-0.4,1.2v5.6c0,0.6,0.1,1,0.4,1.3
		c0.3,0.3,0.7,0.4,1.2,0.4h7.6c0.6,0,1-0.1,1.3-0.4s0.4-0.7,0.4-1.3V14h4.2V32.9z"/>
	<path class="st1" d="M282.5,32.9c0,0.7-0.1,1.4-0.3,1.9s-0.4,1.1-0.7,1.5c-0.3,0.4-0.6,0.8-1,1.1c-0.4,0.3-0.8,0.6-1.2,0.7
		c-0.4,0.2-0.9,0.3-1.3,0.4c-0.4,0.1-0.9,0.1-1.3,0.1h-11.3v-4.2h11.3c0.6,0,1-0.1,1.3-0.4s0.4-0.7,0.4-1.3
		c-0.1-1.1-0.6-1.7-1.7-1.7h-6.5c-0.9,0-1.7-0.2-2.4-0.5s-1.2-0.7-1.6-1.2c-0.4-0.5-0.7-1-0.9-1.6c-0.2-0.6-0.3-1.1-0.3-1.6
		c0-0.9,0.2-1.7,0.5-2.4s0.8-1.2,1.3-1.6s1.1-0.7,1.6-0.9c0.6-0.2,1.1-0.3,1.7-0.3h10.3v4.2h-10.3c-0.2,0-0.4,0-0.5,0.1
		c-0.1,0-0.2,0.1-0.3,0.2c-0.1,0.1-0.1,0.2-0.1,0.3s0,0.2,0,0.3c0,0.2,0,0.3,0.1,0.4c0.1,0.1,0.1,0.2,0.2,0.2c0.1,0,0.2,0.1,0.3,0.1
		c0.1,0,0.2,0,0.3,0h6.5c1.1,0,2,0.2,2.7,0.6s1.4,0.9,1.8,1.5s0.8,1.2,1,1.9C282.4,31.6,282.5,32.3,282.5,32.9z"/>
	<path class="st1" d="M318.4,23.4c0,1-0.1,1.8-0.4,2.6c-0.2,0.8-0.6,1.4-1,2c-0.4,0.6-0.9,1.1-1.4,1.5c-0.5,0.4-1.1,0.7-1.7,1
		c-0.6,0.3-1.1,0.5-1.7,0.6c-0.6,0.1-1.1,0.2-1.7,0.2h-1.7v7.6h-4.2v-7.6H303c-0.5,0-1.1-0.1-1.7-0.2c-0.6-0.1-1.2-0.3-1.7-0.6
		c-0.6-0.3-1.1-0.6-1.7-1s-1-0.9-1.4-1.5c-0.4-0.6-0.7-1.2-1-2c-0.2-0.8-0.4-1.6-0.4-2.6v-7.7h4.2v7.7c0,0.5,0.1,1,0.3,1.5
		c0.2,0.4,0.4,0.8,0.7,1.1s0.7,0.6,1.1,0.7c0.4,0.2,0.9,0.2,1.5,0.2h7.6c0.4-0.1,0.8-0.1,1.2-0.2s0.8-0.3,1.1-0.5
		c0.3-0.2,0.6-0.6,0.9-1s0.3-1,0.3-1.8v-7.7h4.2V23.4z"/>
	<path class="st1" d="M340.4,32.9c0,0.7-0.1,1.4-0.3,1.9s-0.4,1.1-0.7,1.5c-0.3,0.4-0.7,0.8-1,1.1c-0.4,0.3-0.8,0.6-1.2,0.7
		c-0.4,0.2-0.9,0.3-1.3,0.4c-0.4,0.1-0.9,0.1-1.3,0.1H327c-0.6,0-1.2-0.1-1.9-0.3s-1.3-0.5-1.9-1c-0.6-0.5-1.1-1.1-1.5-1.8
		c-0.4-0.7-0.6-1.7-0.6-2.7v-5.7c0-1.1,0.2-2,0.6-2.7c0.4-0.7,0.9-1.4,1.5-1.8c0.6-0.5,1.2-0.8,1.9-1s1.3-0.3,1.9-0.3h7.6
		c1.1,0,2,0.2,2.7,0.6c0.8,0.4,1.4,0.9,1.8,1.5s0.8,1.2,1,1.9c0.2,0.7,0.3,1.3,0.3,1.9V32.9z M336.2,27.2c0-0.6-0.1-1-0.4-1.3
		c-0.3-0.3-0.7-0.4-1.3-0.4H327c-0.6,0-1,0.1-1.3,0.4c-0.3,0.3-0.4,0.7-0.4,1.2v5.7c0,0.5,0.1,1,0.4,1.3c0.3,0.3,0.7,0.4,1.3,0.4
		h7.5c0.6,0,1-0.1,1.3-0.4s0.4-0.7,0.4-1.3V27.2z"/>
	<path class="st1" d="M363,36.6c0,0.3-0.1,0.6-0.2,0.8s-0.3,0.5-0.4,0.7c-0.2,0.2-0.4,0.3-0.7,0.4c-0.3,0.1-0.5,0.2-0.8,0.2h-9.5
		c-0.5,0-1.1-0.1-1.7-0.2c-0.6-0.1-1.2-0.3-1.7-0.6s-1.1-0.6-1.7-1c-0.5-0.4-1-0.9-1.4-1.5c-0.4-0.6-0.7-1.2-1-2
		c-0.2-0.8-0.4-1.6-0.4-2.5v-9.7h4.2V31c0,0.5,0.1,1,0.3,1.5c0.2,0.4,0.4,0.8,0.8,1.1s0.7,0.6,1.1,0.7c0.4,0.2,0.9,0.2,1.4,0.2h7.3
		V21.3h4.2V36.6z"/>
	<path class="st1" d="M388.3,19.8h-9.2v18.9h-4.2V19.8h-9.2v-4.2h22.7V19.8z"/>
	<path class="st1" d="M409.1,36.6c0,0.3-0.1,0.6-0.2,0.8s-0.3,0.5-0.4,0.7c-0.2,0.2-0.4,0.3-0.7,0.4c-0.3,0.1-0.5,0.2-0.8,0.2h-9.5
		c-0.5,0-1.1-0.1-1.7-0.2c-0.6-0.1-1.2-0.3-1.7-0.6s-1.1-0.6-1.7-1c-0.5-0.4-1-0.9-1.4-1.5c-0.4-0.6-0.7-1.2-1-2
		c-0.2-0.8-0.4-1.6-0.4-2.5v-9.7h4.2V31c0,0.5,0.1,1,0.3,1.5c0.2,0.4,0.4,0.8,0.8,1.1s0.7,0.6,1.1,0.7c0.4,0.2,0.9,0.2,1.4,0.2h7.3
		V21.3h4.2V36.6z"/>
	<path class="st1" d="M432.2,32.9c0,0.4,0,0.8-0.1,1.3c-0.1,0.4-0.2,0.9-0.4,1.3c-0.2,0.4-0.4,0.9-0.8,1.2c-0.3,0.4-0.7,0.7-1.1,1.1
		c-0.4,0.3-0.9,0.6-1.5,0.7s-1.2,0.3-1.9,0.3h-7.6c-0.4,0-0.8,0-1.3-0.1c-0.4-0.1-0.9-0.2-1.3-0.4c-0.4-0.2-0.9-0.4-1.2-0.7
		c-0.4-0.3-0.7-0.7-1.1-1.1c-0.3-0.4-0.6-0.9-0.7-1.5s-0.3-1.2-0.3-1.9V14h4.2v18.9c0,0.5,0.2,0.9,0.5,1.2c0.3,0.3,0.7,0.5,1.2,0.5
		h7.6c0.5,0,0.9-0.2,1.2-0.5c0.3-0.3,0.4-0.7,0.4-1.2v-5.7c0-0.5-0.2-0.9-0.5-1.2c-0.3-0.3-0.7-0.4-1.2-0.4h-7.6v-4.2h7.6
		c0.4,0,0.8,0,1.3,0.1s0.9,0.2,1.3,0.4c0.4,0.2,0.9,0.4,1.2,0.7c0.4,0.3,0.7,0.7,1,1.1c0.3,0.4,0.5,0.9,0.7,1.5s0.3,1.2,0.3,1.9
		V32.9z"/>
	<path class="st1" d="M454.6,27.1c0,0.6-0.1,1.2-0.3,1.9s-0.5,1.3-1,1.9c-0.5,0.6-1.1,1.1-1.8,1.4c-0.7,0.4-1.6,0.6-2.7,0.6h-7.6v-4
		h7.6c0.6,0,1-0.2,1.3-0.5s0.5-0.8,0.5-1.3c0-0.5-0.2-1-0.5-1.3c-0.3-0.3-0.8-0.5-1.3-0.5h-7.6c-0.6,0-1,0.2-1.3,0.5
		c-0.3,0.3-0.5,0.8-0.5,1.3V33c0,0.6,0.2,1,0.5,1.3c0.3,0.3,0.8,0.5,1.3,0.5h7.5v4h-7.6c-0.6,0-1.2-0.1-1.9-0.3
		c-0.7-0.2-1.3-0.5-1.9-1c-0.6-0.5-1.1-1.1-1.4-1.8c-0.4-0.7-0.6-1.6-0.6-2.7v-5.9c0-0.6,0.1-1.2,0.3-1.9c0.2-0.7,0.5-1.3,1-1.9
		c0.5-0.6,1.1-1.1,1.8-1.4c0.7-0.4,1.6-0.6,2.7-0.6h7.6c0.6,0,1.2,0.1,1.9,0.3c0.7,0.2,1.3,0.5,1.9,1c0.6,0.5,1.1,1.1,1.4,1.8
		C454.4,25.2,454.6,26,454.6,27.1z"/>
</g>
<line class="st2" x1="163.2" y1="55" x2="454.6" y2="55"/>
<g>
	<path class="st1" d="M171,82l-0.9,4.7c0,0,0,0.1-0.1,0.1s-0.1,0.1-0.2,0.1s-0.2,0-0.3,0.1s-0.2,0-0.4,0c-0.2,0-0.3,0-0.4,0
		s-0.2,0-0.2-0.1s-0.1-0.1-0.1-0.1s0-0.1,0-0.1l0.9-4.7l-2.1-7.1c0-0.1-0.1-0.3-0.1-0.3s0-0.1,0.1-0.2s0.1-0.1,0.3-0.1s0.3,0,0.5,0
		c0.2,0,0.3,0,0.4,0s0.2,0,0.3,0.1s0.1,0.1,0.1,0.1s0.1,0.1,0.1,0.2l1,3.5c0.1,0.4,0.2,0.8,0.3,1.2s0.2,0.8,0.3,1.2h0
		c0.2-0.4,0.5-0.8,0.7-1.2s0.5-0.8,0.8-1.2l2.4-3.5c0-0.1,0.1-0.1,0.1-0.2s0.1-0.1,0.2-0.1s0.2,0,0.3-0.1s0.3,0,0.5,0
		c0.2,0,0.4,0,0.5,0s0.2,0.1,0.2,0.1s0,0.1,0,0.2s-0.1,0.2-0.2,0.3L171,82z"/>
	<path class="st1" d="M184,80.8c0,0.5,0,1-0.1,1.5s-0.2,1-0.4,1.5s-0.4,0.9-0.7,1.3s-0.6,0.8-1,1.1s-0.8,0.5-1.3,0.7s-1,0.3-1.6,0.3
		c-0.6,0-1.2-0.1-1.6-0.2s-0.8-0.4-1.1-0.7s-0.5-0.6-0.6-1.1s-0.2-0.9-0.2-1.4c0-0.5,0-1,0.1-1.5s0.2-1,0.4-1.4s0.4-0.9,0.7-1.3
		s0.6-0.8,1-1.1s0.8-0.5,1.3-0.7s1-0.3,1.6-0.3c0.6,0,1.2,0.1,1.6,0.2s0.8,0.4,1.1,0.7s0.5,0.6,0.6,1.1S184,80.3,184,80.8z
		 M182.3,80.9c0-0.3,0-0.6-0.1-0.9s-0.2-0.5-0.3-0.7s-0.4-0.3-0.6-0.4s-0.6-0.1-0.9-0.1c-0.4,0-0.7,0.1-1.1,0.2s-0.6,0.3-0.9,0.6
		s-0.5,0.5-0.7,0.8s-0.3,0.7-0.5,1s-0.2,0.7-0.3,1.1s-0.1,0.8-0.1,1.1c0,0.3,0,0.6,0.1,0.9s0.2,0.5,0.3,0.7s0.4,0.3,0.6,0.4
		s0.6,0.1,0.9,0.1c0.4,0,0.8-0.1,1.1-0.2s0.6-0.3,0.8-0.6s0.5-0.5,0.7-0.8s0.3-0.7,0.5-1s0.2-0.7,0.3-1.1S182.3,81.3,182.3,80.9z"/>
	<path class="st1" d="M193.5,86.7c0,0.1,0,0.1-0.1,0.1s-0.1,0.1-0.1,0.1s-0.1,0-0.2,0.1s-0.2,0-0.3,0c-0.1,0-0.2,0-0.3,0
		s-0.2,0-0.2-0.1s-0.1-0.1-0.1-0.1s0-0.1,0-0.1l0.3-1.7c-0.1,0.2-0.3,0.5-0.5,0.7s-0.5,0.5-0.8,0.7s-0.6,0.4-1,0.5s-0.7,0.2-1.1,0.2
		c-0.4,0-0.8-0.1-1.1-0.2s-0.5-0.3-0.7-0.5s-0.3-0.5-0.4-0.8s-0.1-0.6-0.1-1c0-0.2,0-0.4,0-0.7s0.1-0.5,0.1-0.7l1.1-5.5
		c0,0,0-0.1,0.1-0.1s0.1-0.1,0.2-0.1s0.2,0,0.3-0.1s0.2,0,0.4,0s0.3,0,0.4,0s0.2,0,0.2,0.1s0.1,0.1,0.1,0.1s0,0.1,0,0.1l-1.1,5.4
		c0,0.2-0.1,0.3-0.1,0.5s0,0.4,0,0.6c0,0.2,0,0.4,0.1,0.5s0.1,0.3,0.2,0.4s0.2,0.2,0.3,0.3s0.3,0.1,0.5,0.1c0.3,0,0.7-0.1,1.1-0.3
		s0.7-0.5,1-0.8s0.6-0.8,0.8-1.3s0.4-1,0.5-1.6l0.8-3.9c0,0,0-0.1,0.1-0.1s0.1-0.1,0.2-0.1s0.2,0,0.3-0.1s0.2,0,0.4,0s0.3,0,0.4,0
		s0.2,0,0.2,0.1s0.1,0.1,0.1,0.1s0,0.1,0,0.1L193.5,86.7z"/>
	<path class="st1" d="M203.7,78c0,0.1,0,0.1,0,0.2s0,0.1,0,0.2s0,0.1-0.1,0.2s-0.1,0.1-0.1,0.2s-0.1,0.1-0.1,0.1s-0.1,0-0.2,0h-2.2
		l-1,4.9c0,0.1,0,0.3-0.1,0.5s0,0.3,0,0.4c0,0.3,0.1,0.6,0.2,0.7s0.4,0.2,0.7,0.2c0.2,0,0.3,0,0.5,0s0.2-0.1,0.3-0.1
		s0.2-0.1,0.2-0.1s0.1,0,0.2,0s0.1,0,0.1,0.1s0,0.1,0,0.2c0,0.1,0,0.2,0,0.3s0,0.2-0.1,0.3s-0.1,0.2-0.1,0.3s-0.1,0.1-0.1,0.2
		c-0.1,0-0.1,0.1-0.2,0.1s-0.2,0.1-0.4,0.1s-0.3,0.1-0.4,0.1s-0.3,0-0.5,0c-0.4,0-0.7,0-0.9-0.1s-0.5-0.2-0.7-0.4s-0.3-0.4-0.4-0.6
		s-0.1-0.6-0.1-0.9c0-0.1,0-0.2,0-0.3s0-0.2,0-0.3s0-0.2,0-0.3s0-0.2,0.1-0.3l1-4.9h-1.2c-0.1,0-0.1,0-0.2-0.1s-0.1-0.1-0.1-0.2
		c0-0.1,0-0.2,0-0.3s0-0.2,0.1-0.3s0.1-0.2,0.2-0.3s0.1-0.1,0.2-0.1h1.2l0.4-2.1c0,0,0-0.1,0.1-0.1s0.1-0.1,0.2-0.1s0.2-0.1,0.3-0.1
		s0.2,0,0.4,0s0.3,0,0.4,0s0.2,0,0.2,0.1s0.1,0.1,0.1,0.1s0,0.1,0,0.1l-0.4,2.1h2.2c0.1,0,0.2,0,0.2,0.1S203.7,77.9,203.7,78z"/>
	<path class="st1" d="M212.3,86.7c0,0.1,0,0.1-0.1,0.1s-0.1,0.1-0.1,0.1s-0.1,0-0.2,0.1s-0.2,0-0.3,0c-0.1,0-0.2,0-0.3,0
		s-0.2,0-0.2-0.1s-0.1-0.1-0.1-0.1s0-0.1,0-0.1l0.3-1.7c-0.1,0.2-0.3,0.5-0.5,0.7s-0.5,0.5-0.8,0.7s-0.6,0.4-1,0.5s-0.7,0.2-1.1,0.2
		c-0.4,0-0.8-0.1-1.1-0.2s-0.5-0.3-0.7-0.5s-0.3-0.5-0.4-0.8s-0.1-0.6-0.1-1c0-0.2,0-0.4,0-0.7s0.1-0.5,0.1-0.7l1.1-5.5
		c0,0,0-0.1,0.1-0.1s0.1-0.1,0.2-0.1s0.2,0,0.3-0.1s0.2,0,0.4,0s0.3,0,0.4,0s0.2,0,0.2,0.1s0.1,0.1,0.1,0.1s0,0.1,0,0.1l-1.1,5.4
		c0,0.2-0.1,0.3-0.1,0.5s0,0.4,0,0.6c0,0.2,0,0.4,0.1,0.5s0.1,0.3,0.2,0.4s0.2,0.2,0.3,0.3s0.3,0.1,0.5,0.1c0.3,0,0.7-0.1,1.1-0.3
		s0.7-0.5,1-0.8s0.6-0.8,0.8-1.3s0.4-1,0.5-1.6l0.8-3.9c0,0,0-0.1,0.1-0.1s0.1-0.1,0.2-0.1s0.2,0,0.3-0.1s0.2,0,0.4,0s0.3,0,0.4,0
		s0.2,0,0.2,0.1s0.1,0.1,0.1,0.1s0,0.1,0,0.1L212.3,86.7z"/>
	<path class="st1" d="M225,80.7c0,0.4,0,0.8-0.1,1.3s-0.2,0.9-0.3,1.4s-0.4,0.9-0.6,1.4s-0.5,0.9-0.9,1.2s-0.7,0.6-1.2,0.8
		s-1,0.3-1.5,0.3c-0.6,0-1.1-0.1-1.5-0.3s-0.8-0.5-1.1-1l-0.2,0.9c0,0.1-0.1,0.2-0.2,0.2S217,87,216.8,87c-0.3,0-0.5,0-0.5-0.1
		s-0.1-0.1-0.1-0.2l2.6-13c0-0.1,0-0.1,0.1-0.1s0.1-0.1,0.1-0.1s0.2,0,0.3-0.1s0.2,0,0.4,0c0.2,0,0.3,0,0.4,0s0.2,0,0.2,0.1
		s0.1,0.1,0.1,0.1s0,0.1,0,0.1l-0.8,3.9c0,0.2-0.1,0.3-0.1,0.5s-0.1,0.4-0.1,0.5s-0.1,0.3-0.1,0.5s-0.1,0.3-0.1,0.4
		c0.1-0.2,0.3-0.5,0.5-0.7s0.5-0.5,0.8-0.7s0.6-0.4,1-0.5s0.7-0.2,1.1-0.2c0.4,0,0.7,0.1,1,0.2s0.5,0.2,0.7,0.4s0.4,0.4,0.5,0.6
		s0.2,0.4,0.3,0.7s0.1,0.5,0.1,0.7S225,80.5,225,80.7z M223.3,80.8c0-0.2,0-0.4,0-0.6s-0.1-0.4-0.2-0.6s-0.2-0.4-0.4-0.5
		s-0.4-0.2-0.7-0.2c-0.4,0-0.7,0.1-1.1,0.3s-0.7,0.5-1,0.8s-0.6,0.8-0.8,1.2s-0.4,1-0.5,1.6l-0.3,1.6c0.3,0.4,0.6,0.8,1,1
		s0.7,0.3,1.2,0.3c0.3,0,0.6-0.1,0.9-0.2s0.5-0.4,0.7-0.6s0.4-0.6,0.6-0.9s0.3-0.7,0.4-1.1s0.2-0.7,0.2-1.1S223.3,81.1,223.3,80.8z"
		/>
	<path class="st1" d="M235.7,79.7c0,0.4-0.1,0.9-0.3,1.2s-0.5,0.7-1,0.9s-1,0.4-1.7,0.6s-1.5,0.2-2.5,0.2h-1c0,0.2-0.1,0.4-0.1,0.6
		s0,0.4,0,0.6c0,0.7,0.2,1.1,0.5,1.5s0.8,0.5,1.6,0.5c0.4,0,0.8,0,1.1-0.1s0.6-0.1,0.9-0.2s0.4-0.1,0.6-0.2s0.3-0.1,0.3-0.1
		s0.1,0,0.1,0.1s0,0.1,0,0.2c0,0.1,0,0.1,0,0.2s0,0.2-0.1,0.3s-0.1,0.2-0.1,0.3s-0.1,0.2-0.1,0.2c-0.1,0.1-0.2,0.2-0.4,0.2
		s-0.4,0.1-0.7,0.2s-0.6,0.1-0.9,0.2s-0.7,0.1-1,0.1c-0.6,0-1.1-0.1-1.5-0.2s-0.8-0.3-1.1-0.6s-0.5-0.6-0.6-1s-0.2-0.9-0.2-1.4
		c0-0.4,0-0.9,0.1-1.4s0.2-1,0.4-1.4s0.4-0.9,0.7-1.4s0.6-0.8,1-1.2s0.8-0.6,1.3-0.8s1.1-0.3,1.7-0.3c0.5,0,1,0.1,1.4,0.2
		s0.7,0.3,0.9,0.5s0.4,0.5,0.5,0.7S235.7,79.5,235.7,79.7z M234.1,79.9c0-0.3-0.1-0.6-0.4-0.8s-0.6-0.3-1.1-0.3
		c-0.4,0-0.8,0.1-1.1,0.2s-0.6,0.3-0.9,0.6s-0.5,0.5-0.6,0.9s-0.3,0.7-0.4,1h1c0.7,0,1.3,0,1.7-0.1s0.8-0.2,1.1-0.3s0.5-0.3,0.6-0.5
		S234.1,80.1,234.1,79.9z"/>
	<path class="st1" d="M252.9,77.3c0,0.3,0,0.7-0.1,1.1s-0.2,0.7-0.4,1.1s-0.4,0.7-0.7,1s-0.6,0.6-1,0.9s-0.8,0.4-1.3,0.6
		s-1.1,0.2-1.8,0.2h-1.7l-0.9,4.6c0,0,0,0.1-0.1,0.1s-0.1,0.1-0.2,0.1s-0.2,0-0.3,0.1s-0.2,0-0.4,0c-0.1,0-0.3,0-0.4,0
		s-0.2,0-0.2-0.1s-0.1-0.1-0.1-0.1s0-0.1,0-0.1l2.3-11.7c0.1-0.3,0.2-0.4,0.3-0.6s0.4-0.2,0.6-0.2h2.5c0.3,0,0.6,0,0.9,0
		s0.5,0.1,0.7,0.1c0.4,0.1,0.7,0.2,1,0.4s0.5,0.4,0.7,0.6s0.3,0.5,0.4,0.8S252.9,76.9,252.9,77.3z M251.1,77.5c0-0.4-0.1-0.8-0.3-1
		s-0.5-0.5-0.9-0.6c-0.2,0-0.3-0.1-0.5-0.1s-0.4,0-0.6,0h-1.6l-1,5.1h1.6c0.5,0,0.9-0.1,1.2-0.2s0.6-0.2,0.8-0.4s0.4-0.4,0.6-0.6
		s0.3-0.5,0.4-0.7s0.2-0.5,0.2-0.7S251.1,77.7,251.1,77.5z"/>
	<path class="st1" d="M256,86.7c0,0.1,0,0.1-0.1,0.1s-0.1,0.1-0.1,0.1s-0.2,0-0.3,0.1s-0.2,0-0.4,0c-0.2,0-0.3,0-0.4,0
		s-0.2,0-0.2-0.1s-0.1-0.1-0.1-0.1s0-0.1,0-0.1l2.6-13c0-0.1,0-0.1,0.1-0.1s0.1-0.1,0.1-0.1s0.2,0,0.3-0.1s0.2,0,0.4,0
		c0.2,0,0.3,0,0.4,0s0.2,0,0.2,0.1s0.1,0.1,0.1,0.1s0,0.1,0,0.1L256,86.7z"/>
	<path class="st1" d="M267.1,86.7c0,0.1-0.1,0.2-0.2,0.2s-0.3,0.1-0.6,0.1c-0.1,0-0.2,0-0.3,0s-0.2,0-0.2-0.1s-0.1-0.1-0.1-0.1
		s0-0.1,0-0.1L266,85c-0.1,0.2-0.2,0.4-0.5,0.7s-0.5,0.5-0.8,0.7s-0.6,0.4-1,0.5s-0.7,0.2-1.1,0.2c-0.5,0-1-0.1-1.3-0.3
		s-0.6-0.4-0.8-0.7s-0.3-0.6-0.4-1S260,84.4,260,84c0-0.4,0-0.8,0.1-1.2s0.2-0.9,0.3-1.4s0.4-1,0.6-1.4s0.5-0.9,0.9-1.2
		s0.7-0.7,1.2-0.9s1-0.3,1.6-0.3s1.1,0.1,1.5,0.4s0.8,0.6,1.1,1l0.2-0.9c0-0.1,0.1-0.2,0.2-0.2s0.3-0.1,0.6-0.1c0.1,0,0.2,0,0.3,0
		s0.2,0,0.2,0.1s0.1,0.1,0.1,0.1s0,0.1,0,0.1L267.1,86.7z M266.8,80.2c-0.3-0.4-0.6-0.8-1-1s-0.8-0.3-1.2-0.3c-0.4,0-0.7,0.1-1,0.2
		s-0.5,0.4-0.8,0.7s-0.4,0.6-0.6,0.9s-0.3,0.7-0.4,1.1s-0.2,0.7-0.2,1.1s-0.1,0.7-0.1,1c0,0.2,0,0.5,0.1,0.7s0.1,0.4,0.2,0.6
		s0.2,0.3,0.4,0.4s0.4,0.2,0.7,0.2c0.4,0,0.7-0.1,1.1-0.3s0.7-0.5,1-0.8s0.6-0.8,0.8-1.2s0.4-1,0.5-1.6L266.8,80.2z"/>
	<path class="st1" d="M279.4,77.8c0,0.1,0,0.1,0,0.2s0,0.1-0.1,0.2c-0.2,0.6-0.4,1.2-0.7,1.9s-0.5,1.3-0.9,2s-0.7,1.4-1.2,2.2
		s-1,1.6-1.6,2.4l-2.5,3.4c0,0.1-0.1,0.1-0.1,0.1s-0.1,0.1-0.2,0.1s-0.2,0.1-0.3,0.1s-0.3,0-0.4,0c-0.2,0-0.3,0-0.4,0
		s-0.2,0-0.3-0.1s-0.1-0.1-0.1-0.2s0-0.1,0.1-0.2l2.4-3.1l-1.5-8.6c0-0.1,0-0.1,0-0.2s0-0.1,0-0.2c0-0.1,0-0.1,0-0.2
		s0.1-0.1,0.1-0.1s0.2,0,0.3-0.1s0.2,0,0.4,0c0.2,0,0.3,0,0.4,0s0.2,0,0.2,0s0.1,0.1,0.1,0.1s0,0.1,0,0.2l1.1,7.2h0
		c0.4-0.6,0.8-1.1,1.1-1.7s0.6-1.2,0.9-1.8s0.5-1.2,0.8-1.8s0.4-1.2,0.6-1.9c0-0.1,0-0.1,0.1-0.1s0.1-0.1,0.2-0.1s0.2,0,0.3-0.1
		s0.3,0,0.4,0c0.3,0,0.5,0,0.6,0.1S279.4,77.8,279.4,77.8z"/>
	<path class="st1" d="M289.2,79.7c0,0.4-0.1,0.9-0.3,1.2s-0.5,0.7-1,0.9s-1,0.4-1.7,0.6s-1.5,0.2-2.5,0.2h-1c0,0.2-0.1,0.4-0.1,0.6
		s0,0.4,0,0.6c0,0.7,0.2,1.1,0.5,1.5s0.8,0.5,1.6,0.5c0.4,0,0.8,0,1.1-0.1s0.6-0.1,0.9-0.2s0.4-0.1,0.6-0.2s0.3-0.1,0.3-0.1
		s0.1,0,0.1,0.1s0,0.1,0,0.2c0,0.1,0,0.1,0,0.2s0,0.2-0.1,0.3s-0.1,0.2-0.1,0.3s-0.1,0.2-0.1,0.2c-0.1,0.1-0.2,0.2-0.4,0.2
		s-0.4,0.1-0.7,0.2s-0.6,0.1-0.9,0.2s-0.7,0.1-1,0.1c-0.6,0-1.1-0.1-1.5-0.2s-0.8-0.3-1.1-0.6s-0.5-0.6-0.6-1s-0.2-0.9-0.2-1.4
		c0-0.4,0-0.9,0.1-1.4s0.2-1,0.4-1.4s0.4-0.9,0.7-1.4s0.6-0.8,1-1.2s0.8-0.6,1.3-0.8s1.1-0.3,1.7-0.3c0.5,0,1,0.1,1.4,0.2
		s0.7,0.3,0.9,0.5s0.4,0.5,0.5,0.7S289.2,79.5,289.2,79.7z M287.6,79.9c0-0.3-0.1-0.6-0.4-0.8s-0.6-0.3-1.1-0.3
		c-0.4,0-0.8,0.1-1.1,0.2s-0.6,0.3-0.9,0.6s-0.5,0.5-0.6,0.9s-0.3,0.7-0.4,1h1c0.7,0,1.3,0,1.7-0.1s0.8-0.2,1.1-0.3s0.5-0.3,0.6-0.5
		S287.6,80.1,287.6,79.9z"/>
	<path class="st1" d="M298,77.9c0,0,0,0.1,0,0.2s0,0.2,0,0.3s0,0.2-0.1,0.3s-0.1,0.2-0.1,0.3s-0.1,0.2-0.1,0.2s-0.1,0.1-0.1,0.1
		s-0.1,0-0.2,0s-0.1-0.1-0.2-0.1s-0.2-0.1-0.3-0.1s-0.2,0-0.3,0c-0.2,0-0.5,0.1-0.8,0.3s-0.6,0.5-0.9,0.8s-0.5,0.7-0.8,1.2
		s-0.4,1-0.5,1.5l-0.8,3.9c0,0.1,0,0.1-0.1,0.1s-0.1,0.1-0.1,0.1s-0.2,0-0.3,0.1s-0.2,0-0.4,0c-0.2,0-0.3,0-0.4,0s-0.2,0-0.2-0.1
		s-0.1-0.1-0.1-0.1s0-0.1,0-0.1l1.7-8.8c0,0,0-0.1,0.1-0.1s0.1-0.1,0.1-0.1s0.1,0,0.2-0.1s0.2,0,0.3,0c0.1,0,0.2,0,0.3,0
		s0.2,0,0.2,0.1s0.1,0.1,0.1,0.1s0,0.1,0,0.1l-0.3,1.6c0.1-0.3,0.3-0.5,0.5-0.8s0.4-0.5,0.7-0.6s0.5-0.3,0.8-0.4s0.5-0.2,0.8-0.2
		c0.1,0,0.2,0,0.3,0s0.2,0,0.3,0.1s0.2,0,0.3,0.1s0.1,0.1,0.2,0.1S298,77.8,298,77.9z"/>
	<path class="st1" d="M312.6,85.6c-0.6,0.5-1.3,0.8-2,1.1s-1.5,0.4-2.3,0.4c-0.6,0-1.1-0.1-1.6-0.2s-0.9-0.3-1.2-0.6
		s-0.6-0.6-0.7-0.9s-0.3-0.8-0.3-1.2c0-0.4,0.1-0.8,0.2-1.2s0.3-0.8,0.6-1.1s0.6-0.7,1.1-1.1s1-0.7,1.6-1c-0.2-0.3-0.3-0.6-0.4-0.9
		s-0.2-0.5-0.3-0.8s-0.1-0.4-0.1-0.6s0-0.3,0-0.5c0-0.2,0-0.4,0.1-0.7s0.1-0.5,0.3-0.7s0.3-0.5,0.5-0.7s0.5-0.4,0.8-0.6
		s0.7-0.3,1.1-0.4s0.9-0.2,1.4-0.2c0.6,0,1.1,0.1,1.5,0.2s0.7,0.3,1,0.5s0.4,0.4,0.5,0.7s0.2,0.5,0.2,0.8c0,0.4-0.1,0.8-0.2,1.1
		s-0.4,0.7-0.7,1s-0.7,0.7-1.3,1.1s-1.2,0.7-2,1.1c0.2,0.3,0.4,0.7,0.6,1s0.4,0.6,0.6,0.8s0.4,0.5,0.6,0.8s0.5,0.5,0.7,0.8
		c0.4-0.4,0.7-0.8,0.9-1.3s0.4-0.8,0.5-1.2s0.1-0.6,0.2-0.7s0-0.2,0.1-0.2s0.1-0.1,0.1-0.1s0.1-0.1,0.2-0.1s0.2,0,0.4,0
		c0.3,0,0.5,0,0.6,0.1s0.2,0.1,0.2,0.2s0,0.3-0.1,0.5s-0.1,0.6-0.2,0.9s-0.2,0.7-0.4,1s-0.4,0.7-0.6,1s-0.5,0.6-0.8,0.9
		c0.4,0.4,0.8,0.7,1,0.9s0.5,0.3,0.7,0.3c0.1,0,0.2,0,0.3,0.1s0.1,0.1,0.1,0.2c0,0,0,0.1,0,0.2s0,0.2-0.1,0.3s-0.1,0.2-0.1,0.3
		s-0.1,0.2-0.1,0.2s-0.1,0.1-0.2,0.1s-0.2,0-0.4,0s-0.3,0-0.4-0.1s-0.3-0.1-0.5-0.2s-0.4-0.3-0.6-0.5S312.9,85.9,312.6,85.6z
		 M308.7,81c-0.4,0.2-0.7,0.4-1,0.6s-0.5,0.5-0.8,0.7s-0.4,0.5-0.5,0.8s-0.2,0.6-0.2,0.9c0,0.2,0,0.4,0.1,0.6s0.2,0.4,0.4,0.6
		s0.4,0.3,0.7,0.4s0.6,0.1,1.1,0.1c0.3,0,0.5,0,0.8-0.1s0.5-0.1,0.8-0.2s0.5-0.2,0.7-0.3s0.5-0.3,0.7-0.4c-0.3-0.3-0.5-0.6-0.8-0.9
		s-0.5-0.6-0.7-0.9s-0.5-0.6-0.7-0.9S308.9,81.3,308.7,81z M309.5,79.1c0.7-0.3,1.2-0.6,1.6-0.9s0.7-0.5,1-0.8s0.4-0.5,0.5-0.7
		s0.1-0.4,0.1-0.7c0-0.1,0-0.2-0.1-0.3s-0.1-0.2-0.2-0.4s-0.3-0.2-0.5-0.3s-0.5-0.1-0.8-0.1c-0.4,0-0.8,0.1-1.1,0.2
		s-0.5,0.3-0.7,0.5s-0.3,0.4-0.4,0.6s-0.1,0.4-0.1,0.6c0,0.1,0,0.3,0,0.4s0.1,0.3,0.1,0.5s0.1,0.4,0.2,0.6S309.3,78.9,309.5,79.1z"
		/>
	<path class="st1" d="M334.8,82.4c-0.2,0.8-0.4,1.5-0.7,2.1s-0.8,1.1-1.2,1.5s-1,0.7-1.7,0.9s-1.3,0.3-2,0.3c-0.8,0-1.4-0.1-2-0.3
		s-1-0.5-1.3-0.9s-0.6-0.9-0.7-1.5s-0.1-1.3,0.1-2.1l1.5-7.7c0-0.1,0-0.1,0.1-0.1s0.1-0.1,0.2-0.1s0.2,0,0.3-0.1s0.2,0,0.4,0
		s0.3,0,0.4,0s0.2,0,0.2,0.1s0.1,0.1,0.1,0.1s0,0.1,0,0.1l-1.5,7.7c-0.1,0.6-0.1,1.1-0.1,1.5s0.2,0.8,0.4,1.1s0.5,0.5,0.8,0.6
		s0.8,0.2,1.3,0.2c0.5,0,0.9-0.1,1.4-0.2s0.8-0.4,1.1-0.7s0.6-0.6,0.8-1.1s0.4-0.9,0.5-1.5l1.5-7.7c0-0.1,0-0.1,0.1-0.1
		s0.1-0.1,0.2-0.1s0.2,0,0.3-0.1s0.2,0,0.4,0c0.2,0,0.3,0,0.4,0s0.2,0,0.2,0.1s0.1,0.1,0.1,0.1s0,0.1,0,0.1L334.8,82.4z"/>
	<path class="st1" d="M347.7,77c0,0.4-0.1,0.9-0.2,1.3s-0.3,0.8-0.6,1.1s-0.6,0.6-1,0.9s-0.8,0.5-1.4,0.6c0.3,0.1,0.6,0.4,0.8,0.8
		s0.4,0.9,0.5,1.6l0.5,2.8c0,0.1,0,0.2,0.1,0.3s0,0.2,0,0.3c0,0.1,0,0.1,0,0.2s-0.1,0.1-0.2,0.1s-0.2,0-0.3,0.1s-0.3,0-0.5,0
		c-0.2,0-0.3,0-0.4,0s-0.2,0-0.2-0.1s-0.1-0.1-0.1-0.1s0-0.1-0.1-0.2l-0.5-3c-0.1-0.3-0.1-0.7-0.2-0.9s-0.2-0.5-0.4-0.7
		s-0.4-0.4-0.6-0.5s-0.6-0.2-1-0.2H341l-1.1,5.4c0,0,0,0.1-0.1,0.1s-0.1,0.1-0.2,0.1s-0.2,0-0.3,0.1s-0.2,0-0.4,0
		c-0.1,0-0.3,0-0.4,0s-0.2,0-0.2-0.1s-0.1-0.1-0.1-0.1s0-0.1,0-0.1l2.3-11.7c0.1-0.3,0.2-0.4,0.3-0.5s0.3-0.2,0.5-0.2h2.7
		c0.6,0,1.1,0.1,1.6,0.2s0.8,0.3,1.1,0.5s0.5,0.5,0.7,0.8S347.7,76.5,347.7,77z M345.9,77.2c0-0.2,0-0.4-0.1-0.6s-0.2-0.4-0.4-0.5
		s-0.4-0.2-0.7-0.3s-0.6-0.1-1-0.1h-1.7l-0.9,4.3h1.5c0.6,0,1.1-0.1,1.5-0.2s0.7-0.4,1-0.6s0.4-0.5,0.6-0.9S345.9,77.6,345.9,77.2z"
		/>
	<path class="st1" d="M356.6,85.8c0,0,0,0.1,0,0.2s0,0.1,0,0.2s0,0.2-0.1,0.3s-0.1,0.2-0.1,0.2s-0.1,0.1-0.1,0.2s-0.1,0.1-0.2,0.1
		h-5.6c-0.1,0-0.2,0-0.2,0s-0.1-0.1-0.2-0.1s-0.1-0.1-0.1-0.2s0-0.2,0-0.3l2.3-11.7c0,0,0-0.1,0.1-0.1s0.1-0.1,0.2-0.1
		s0.2,0,0.3-0.1s0.2,0,0.4,0s0.3,0,0.4,0s0.2,0,0.2,0.1s0.1,0.1,0.1,0.1s0,0.1,0,0.1l-2.2,10.9h4.5c0.1,0,0.1,0,0.2,0.1
		S356.6,85.7,356.6,85.8z"/>
	<path class="st1" d="M376.3,75.7c0,0,0,0.1,0,0.2s0,0.1,0,0.2s0,0.2-0.1,0.2s-0.1,0.2-0.1,0.2s-0.1,0.1-0.1,0.1s-0.1,0.1-0.1,0.1
		c-0.1,0-0.2-0.1-0.4-0.2s-0.4-0.2-0.7-0.4s-0.6-0.3-1-0.4s-0.9-0.2-1.4-0.2c-0.6,0-1.1,0.1-1.6,0.3s-1,0.4-1.4,0.7
		s-0.8,0.7-1.1,1.1s-0.6,0.9-0.8,1.3s-0.4,1-0.5,1.5s-0.2,1.1-0.2,1.6c0,0.6,0.1,1.1,0.2,1.5s0.4,0.8,0.7,1.1s0.7,0.5,1.1,0.7
		s0.9,0.2,1.5,0.2c0.4,0,0.8,0,1.3-0.1s0.8-0.2,1.2-0.4l0.7-3.7h-2.9c-0.1,0-0.1,0-0.2-0.1s-0.1-0.1-0.1-0.2c0,0,0-0.1,0-0.2
		s0-0.2,0-0.2s0-0.2,0.1-0.2s0.1-0.1,0.1-0.2s0.1-0.1,0.1-0.1s0.1-0.1,0.2-0.1h4c0.2,0,0.3,0.1,0.4,0.2s0.1,0.3,0.1,0.5l-1,4.9
		c0,0.1-0.1,0.2-0.1,0.3s-0.1,0.1-0.1,0.2c-0.1,0.1-0.2,0.1-0.4,0.3s-0.5,0.2-0.9,0.3s-0.8,0.2-1.2,0.3s-0.9,0.1-1.4,0.1
		c-0.8,0-1.6-0.1-2.2-0.3s-1.2-0.5-1.6-1s-0.8-0.9-1-1.5s-0.3-1.3-0.3-2c0-0.7,0.1-1.4,0.2-2.1s0.4-1.3,0.7-1.9s0.7-1.2,1.1-1.7
		s0.9-1,1.5-1.3s1.2-0.7,1.9-0.9s1.4-0.3,2.2-0.3c0.5,0,0.9,0,1.3,0.1s0.8,0.2,1.1,0.3s0.6,0.2,0.8,0.4s0.4,0.2,0.4,0.3
		s0.1,0.1,0.2,0.2S376.3,75.6,376.3,75.7z"/>
	<path class="st1" d="M386.3,79.7c0,0.4-0.1,0.9-0.3,1.2s-0.5,0.7-1,0.9s-1,0.4-1.7,0.6s-1.5,0.2-2.5,0.2h-1c0,0.2-0.1,0.4-0.1,0.6
		s0,0.4,0,0.6c0,0.7,0.2,1.1,0.5,1.5s0.8,0.5,1.6,0.5c0.4,0,0.8,0,1.1-0.1s0.6-0.1,0.9-0.2s0.4-0.1,0.6-0.2s0.3-0.1,0.3-0.1
		s0.1,0,0.1,0.1s0,0.1,0,0.2c0,0.1,0,0.1,0,0.2s0,0.2-0.1,0.3s-0.1,0.2-0.1,0.3s-0.1,0.2-0.1,0.2c-0.1,0.1-0.2,0.2-0.4,0.2
		s-0.4,0.1-0.7,0.2s-0.6,0.1-0.9,0.2s-0.7,0.1-1,0.1c-0.6,0-1.1-0.1-1.5-0.2s-0.8-0.3-1.1-0.6s-0.5-0.6-0.6-1s-0.2-0.9-0.2-1.4
		c0-0.4,0-0.9,0.1-1.4s0.2-1,0.4-1.4s0.4-0.9,0.7-1.4s0.6-0.8,1-1.2s0.8-0.6,1.3-0.8s1.1-0.3,1.7-0.3c0.5,0,1,0.1,1.4,0.2
		s0.7,0.3,0.9,0.5s0.4,0.5,0.5,0.7S386.3,79.5,386.3,79.7z M384.7,79.9c0-0.3-0.1-0.6-0.4-0.8s-0.6-0.3-1.1-0.3
		c-0.4,0-0.8,0.1-1.1,0.2s-0.6,0.3-0.9,0.6s-0.5,0.5-0.6,0.9s-0.3,0.7-0.4,1h1c0.7,0,1.3,0,1.7-0.1s0.8-0.2,1.1-0.3s0.5-0.3,0.6-0.5
		S384.7,80.1,384.7,79.9z"/>
	<path class="st1" d="M397,79.9c0,0.2,0,0.5,0,0.7s-0.1,0.4-0.1,0.7l-1.1,5.5c0,0.1,0,0.1-0.1,0.1s-0.1,0.1-0.1,0.1s-0.2,0-0.3,0.1
		s-0.2,0-0.4,0c-0.2,0-0.3,0-0.4,0s-0.2,0-0.2-0.1s-0.1-0.1-0.1-0.1s0-0.1,0-0.1l1.1-5.4c0-0.2,0.1-0.4,0.1-0.6s0-0.4,0-0.5
		c0-0.4-0.1-0.7-0.3-1s-0.5-0.4-0.8-0.4c-0.3,0-0.7,0.1-1.1,0.3s-0.7,0.5-1,0.8s-0.6,0.8-0.8,1.2s-0.4,1-0.5,1.6l-0.8,3.9
		c0,0.1,0,0.1-0.1,0.1s-0.1,0.1-0.1,0.1s-0.2,0-0.3,0.1s-0.2,0-0.4,0c-0.2,0-0.3,0-0.4,0s-0.2,0-0.2-0.1s-0.1-0.1-0.1-0.1
		s0-0.1,0-0.1l1.8-8.8c0,0,0-0.1,0.1-0.1s0.1-0.1,0.1-0.1s0.1,0,0.2-0.1s0.2,0,0.3,0c0.1,0,0.2,0,0.3,0s0.2,0,0.2,0.1
		s0.1,0.1,0.1,0.1s0,0.1,0,0.1l-0.3,1.7c0.1-0.2,0.3-0.5,0.5-0.7s0.5-0.5,0.8-0.7s0.6-0.4,1-0.5s0.8-0.2,1.1-0.2
		c0.4,0,0.8,0.1,1.1,0.2s0.5,0.3,0.7,0.5s0.3,0.5,0.4,0.8S397,79.5,397,79.9z"/>
	<path class="st1" d="M407.9,79.7c0,0.4-0.1,0.9-0.3,1.2s-0.5,0.7-1,0.9s-1,0.4-1.7,0.6s-1.5,0.2-2.5,0.2h-1c0,0.2-0.1,0.4-0.1,0.6
		s0,0.4,0,0.6c0,0.7,0.2,1.1,0.5,1.5s0.8,0.5,1.6,0.5c0.4,0,0.8,0,1.1-0.1s0.6-0.1,0.9-0.2s0.4-0.1,0.6-0.2s0.3-0.1,0.3-0.1
		s0.1,0,0.1,0.1s0,0.1,0,0.2c0,0.1,0,0.1,0,0.2s0,0.2-0.1,0.3s-0.1,0.2-0.1,0.3s-0.1,0.2-0.1,0.2c-0.1,0.1-0.2,0.2-0.4,0.2
		s-0.4,0.1-0.7,0.2s-0.6,0.1-0.9,0.2s-0.7,0.1-1,0.1c-0.6,0-1.1-0.1-1.5-0.2s-0.8-0.3-1.1-0.6s-0.5-0.6-0.6-1s-0.2-0.9-0.2-1.4
		c0-0.4,0-0.9,0.1-1.4s0.2-1,0.4-1.4s0.4-0.9,0.7-1.4s0.6-0.8,1-1.2s0.8-0.6,1.3-0.8s1.1-0.3,1.7-0.3c0.5,0,1,0.1,1.4,0.2
		s0.7,0.3,0.9,0.5s0.4,0.5,0.5,0.7S407.9,79.5,407.9,79.7z M406.3,79.9c0-0.3-0.1-0.6-0.4-0.8s-0.6-0.3-1.1-0.3
		c-0.4,0-0.8,0.1-1.1,0.2s-0.6,0.3-0.9,0.6s-0.5,0.5-0.6,0.9s-0.3,0.7-0.4,1h1c0.7,0,1.3,0,1.7-0.1s0.8-0.2,1.1-0.3s0.5-0.3,0.6-0.5
		S406.3,80.1,406.3,79.9z"/>
	<path class="st1" d="M416.7,77.9c0,0,0,0.1,0,0.2s0,0.2,0,0.3s0,0.2-0.1,0.3s-0.1,0.2-0.1,0.3s-0.1,0.2-0.1,0.2s-0.1,0.1-0.1,0.1
		s-0.1,0-0.2,0s-0.1-0.1-0.2-0.1s-0.2-0.1-0.3-0.1s-0.2,0-0.3,0c-0.2,0-0.5,0.1-0.8,0.3s-0.6,0.5-0.9,0.8s-0.5,0.7-0.8,1.2
		s-0.4,1-0.5,1.5l-0.8,3.9c0,0.1,0,0.1-0.1,0.1s-0.1,0.1-0.1,0.1s-0.2,0-0.3,0.1s-0.2,0-0.4,0c-0.2,0-0.3,0-0.4,0s-0.2,0-0.2-0.1
		s-0.1-0.1-0.1-0.1s0-0.1,0-0.1l1.7-8.8c0,0,0-0.1,0.1-0.1s0.1-0.1,0.1-0.1s0.1,0,0.2-0.1s0.2,0,0.3,0c0.1,0,0.2,0,0.3,0
		s0.2,0,0.2,0.1s0.1,0.1,0.1,0.1s0,0.1,0,0.1l-0.3,1.6c0.1-0.3,0.3-0.5,0.5-0.8s0.4-0.5,0.7-0.6s0.5-0.3,0.8-0.4s0.5-0.2,0.8-0.2
		c0.1,0,0.2,0,0.3,0s0.2,0,0.3,0.1s0.2,0,0.3,0.1s0.1,0.1,0.2,0.1S416.7,77.8,416.7,77.9z"/>
	<path class="st1" d="M425,86.7c0,0.1-0.1,0.2-0.2,0.2s-0.3,0.1-0.6,0.1c-0.1,0-0.2,0-0.3,0s-0.2,0-0.2-0.1s-0.1-0.1-0.1-0.1
		s0-0.1,0-0.1l0.3-1.7c-0.1,0.2-0.2,0.4-0.5,0.7s-0.5,0.5-0.8,0.7s-0.6,0.4-1,0.5s-0.7,0.2-1.1,0.2c-0.5,0-1-0.1-1.3-0.3
		s-0.6-0.4-0.8-0.7s-0.3-0.6-0.4-1s-0.1-0.8-0.1-1.2c0-0.4,0-0.8,0.1-1.2s0.2-0.9,0.3-1.4s0.4-1,0.6-1.4s0.5-0.9,0.9-1.2
		s0.7-0.7,1.2-0.9s1-0.3,1.6-0.3s1.1,0.1,1.5,0.4s0.8,0.6,1.1,1l0.2-0.9c0-0.1,0.1-0.2,0.2-0.2s0.3-0.1,0.6-0.1c0.1,0,0.2,0,0.3,0
		s0.2,0,0.2,0.1s0.1,0.1,0.1,0.1s0,0.1,0,0.1L425,86.7z M424.7,80.2c-0.3-0.4-0.6-0.8-1-1s-0.8-0.3-1.2-0.3c-0.4,0-0.7,0.1-1,0.2
		s-0.5,0.4-0.8,0.7s-0.4,0.6-0.6,0.9s-0.3,0.7-0.4,1.1s-0.2,0.7-0.2,1.1s-0.1,0.7-0.1,1c0,0.2,0,0.5,0.1,0.7s0.1,0.4,0.2,0.6
		s0.2,0.3,0.4,0.4s0.4,0.2,0.7,0.2c0.4,0,0.7-0.1,1.1-0.3s0.7-0.5,1-0.8s0.6-0.8,0.8-1.2s0.4-1,0.5-1.6L424.7,80.2z"/>
	<path class="st1" d="M435.1,78c0,0.1,0,0.1,0,0.2s0,0.1,0,0.2s0,0.1-0.1,0.2s-0.1,0.1-0.1,0.2s-0.1,0.1-0.1,0.1s-0.1,0-0.2,0h-2.2
		l-1,4.9c0,0.1,0,0.3-0.1,0.5s0,0.3,0,0.4c0,0.3,0.1,0.6,0.2,0.7s0.4,0.2,0.7,0.2c0.2,0,0.3,0,0.5,0s0.2-0.1,0.3-0.1
		s0.2-0.1,0.2-0.1s0.1,0,0.2,0s0.1,0,0.1,0.1s0,0.1,0,0.2c0,0.1,0,0.2,0,0.3s0,0.2-0.1,0.3s-0.1,0.2-0.1,0.3s-0.1,0.1-0.1,0.2
		c-0.1,0-0.1,0.1-0.2,0.1s-0.2,0.1-0.4,0.1s-0.3,0.1-0.4,0.1s-0.3,0-0.5,0c-0.4,0-0.7,0-0.9-0.1s-0.5-0.2-0.7-0.4s-0.3-0.4-0.4-0.6
		s-0.1-0.6-0.1-0.9c0-0.1,0-0.2,0-0.3s0-0.2,0-0.3s0-0.2,0-0.3s0-0.2,0.1-0.3l1-4.9h-1.2c-0.1,0-0.1,0-0.2-0.1s-0.1-0.1-0.1-0.2
		c0-0.1,0-0.2,0-0.3s0-0.2,0.1-0.3s0.1-0.2,0.2-0.3s0.1-0.1,0.2-0.1h1.2l0.4-2.1c0,0,0-0.1,0.1-0.1s0.1-0.1,0.2-0.1s0.2-0.1,0.3-0.1
		s0.2,0,0.4,0s0.3,0,0.4,0s0.2,0,0.2,0.1s0.1,0.1,0.1,0.1s0,0.1,0,0.1l-0.4,2.1h2.2c0.1,0,0.2,0,0.2,0.1S435.1,77.9,435.1,78z"/>
	<path class="st1" d="M445.1,80.8c0,0.5,0,1-0.1,1.5s-0.2,1-0.4,1.5s-0.4,0.9-0.7,1.3s-0.6,0.8-1,1.1s-0.8,0.5-1.3,0.7
		s-1,0.3-1.6,0.3c-0.6,0-1.2-0.1-1.6-0.2s-0.8-0.4-1.1-0.7s-0.5-0.6-0.6-1.1s-0.2-0.9-0.2-1.4c0-0.5,0-1,0.1-1.5s0.2-1,0.4-1.4
		s0.4-0.9,0.7-1.3s0.6-0.8,1-1.1s0.8-0.5,1.3-0.7s1-0.3,1.6-0.3c0.6,0,1.2,0.1,1.6,0.2s0.8,0.4,1.1,0.7s0.5,0.6,0.6,1.1
		S445.1,80.3,445.1,80.8z M443.4,80.9c0-0.3,0-0.6-0.1-0.9s-0.2-0.5-0.3-0.7s-0.4-0.3-0.6-0.4s-0.6-0.1-0.9-0.1
		c-0.4,0-0.7,0.1-1.1,0.2s-0.6,0.3-0.9,0.6s-0.5,0.5-0.7,0.8s-0.3,0.7-0.5,1s-0.2,0.7-0.3,1.1s-0.1,0.8-0.1,1.1c0,0.3,0,0.6,0.1,0.9
		s0.2,0.5,0.3,0.7s0.4,0.3,0.6,0.4s0.6,0.1,0.9,0.1c0.4,0,0.8-0.1,1.1-0.2s0.6-0.3,0.8-0.6s0.5-0.5,0.7-0.8s0.3-0.7,0.5-1
		s0.2-0.7,0.3-1.1S443.4,81.3,443.4,80.9z"/>
	<path class="st1" d="M454.1,77.9c0,0,0,0.1,0,0.2s0,0.2,0,0.3s0,0.2-0.1,0.3s-0.1,0.2-0.1,0.3s-0.1,0.2-0.1,0.2s-0.1,0.1-0.1,0.1
		s-0.1,0-0.2,0s-0.1-0.1-0.2-0.1s-0.2-0.1-0.3-0.1s-0.2,0-0.3,0c-0.2,0-0.5,0.1-0.8,0.3s-0.6,0.5-0.9,0.8s-0.5,0.7-0.8,1.2
		s-0.4,1-0.5,1.5l-0.8,3.9c0,0.1,0,0.1-0.1,0.1s-0.1,0.1-0.1,0.1s-0.2,0-0.3,0.1s-0.2,0-0.4,0c-0.2,0-0.3,0-0.4,0s-0.2,0-0.2-0.1
		s-0.1-0.1-0.1-0.1s0-0.1,0-0.1l1.7-8.8c0,0,0-0.1,0.1-0.1s0.1-0.1,0.1-0.1s0.1,0,0.2-0.1s0.2,0,0.3,0c0.1,0,0.2,0,0.3,0
		s0.2,0,0.2,0.1s0.1,0.1,0.1,0.1s0,0.1,0,0.1l-0.3,1.6c0.1-0.3,0.3-0.5,0.5-0.8s0.4-0.5,0.7-0.6s0.5-0.3,0.8-0.4s0.5-0.2,0.8-0.2
		c0.1,0,0.2,0,0.3,0s0.2,0,0.3,0.1s0.2,0,0.3,0.1s0.1,0.1,0.2,0.1S454.1,77.8,454.1,77.9z"/>
</g>
</svg>
